<svg width="171" height="50" viewBox="0 0 171 50" fill="none" xmlns="http://www.w3.org/2000/svg">
<path d="M39.5833 25H45.8333L25 6.25L4.16667 25H10.4167V41.6667H14.5833V37.5H35.4167V41.6667H39.5833V25ZM15.0208 20.8333H34.9792L35.4167 21.2292V25H14.5833V21.2292L15.0208 20.8333ZM30.3542 16.6667H19.6458L25 11.8542L30.3542 16.6667ZM14.5833 33.3333V29.1667H35.4167V33.3333H14.5833Z" fill="#ED0245"/>
<path d="M69.83 34.49C70.35 34.49 70.78 34.66 71.12 35C71.48 35.32 71.66 35.74 71.66 36.26C71.66 36.76 71.48 37.18 71.12 37.52C70.78 37.84 70.35 38 69.83 38H60.08C59.56 38 59.12 37.83 58.76 37.49C58.42 37.13 58.25 36.69 58.25 36.17V18.83C58.25 18.31 58.43 17.88 58.79 17.54C59.15 17.18 59.61 17 60.17 17C60.67 17 61.1 17.18 61.46 17.54C61.82 17.88 62 18.31 62 18.83V34.49H69.83ZM78.1857 36.17C78.1857 36.69 78.0157 37.13 77.6757 37.49C77.3357 37.83 76.9057 38 76.3857 38C75.8657 38 75.4357 37.83 75.0957 37.49C74.7557 37.13 74.5857 36.69 74.5857 36.17V23.78C74.5857 23.26 74.7557 22.83 75.0957 22.49C75.4357 22.13 75.8657 21.95 76.3857 21.95C76.9057 21.95 77.3357 22.13 77.6757 22.49C78.0157 22.83 78.1857 23.26 78.1857 23.78V36.17ZM76.3557 20C75.6757 20 75.1957 19.89 74.9157 19.67C74.6357 19.45 74.4957 19.06 74.4957 18.5V17.93C74.4957 17.37 74.6457 16.98 74.9457 16.76C75.2457 16.54 75.7257 16.43 76.3857 16.43C77.0857 16.43 77.5757 16.54 77.8557 16.76C78.1357 16.98 78.2757 17.37 78.2757 17.93V18.5C78.2757 19.08 78.1257 19.48 77.8257 19.7C77.5457 19.9 77.0557 20 76.3557 20ZM94.2155 21.98C94.6955 21.98 95.0955 22.14 95.4155 22.46C95.7355 22.76 95.8955 23.14 95.8955 23.6C95.8955 23.84 95.8155 24.14 95.6555 24.5L90.0455 36.86C89.9055 37.2 89.6955 37.47 89.4155 37.67C89.1555 37.87 88.8555 37.98 88.5155 38L88.2455 38.03C87.9055 38.03 87.5855 37.93 87.2855 37.73C87.0055 37.51 86.7855 37.22 86.6255 36.86L81.0455 24.5C80.9055 24.18 80.8355 23.86 80.8355 23.54C80.8355 23.14 81.0055 22.78 81.3455 22.46C81.6855 22.12 82.1055 21.95 82.6055 21.95C82.9855 21.95 83.3355 22.05 83.6555 22.25C83.9755 22.45 84.2155 22.73 84.3755 23.09L88.5155 32.57L92.6255 23.12C92.7855 22.74 93.0055 22.45 93.2855 22.25C93.5655 22.05 93.8755 21.96 94.2155 21.98ZM112.985 29.6C112.965 30.08 112.775 30.47 112.415 30.77C112.055 31.07 111.635 31.22 111.155 31.22H101.255C101.495 32.4 102.045 33.33 102.905 34.01C103.765 34.67 104.735 35 105.815 35C106.635 35 107.275 34.93 107.735 34.79C108.195 34.63 108.555 34.47 108.815 34.31C109.095 34.13 109.285 34.01 109.385 33.95C109.745 33.77 110.085 33.68 110.405 33.68C110.825 33.68 111.185 33.83 111.485 34.13C111.785 34.43 111.935 34.78 111.935 35.18C111.935 35.72 111.655 36.21 111.095 36.65C110.535 37.11 109.785 37.5 108.845 37.82C107.905 38.14 106.955 38.3 105.995 38.3C104.315 38.3 102.845 37.95 101.585 37.25C100.345 36.55 99.3848 35.59 98.7048 34.37C98.0248 33.13 97.6848 31.74 97.6848 30.2C97.6848 28.48 98.0448 26.97 98.7648 25.67C99.4848 24.37 100.435 23.38 101.615 22.7C102.795 22 104.055 21.65 105.395 21.65C106.715 21.65 107.955 22.01 109.115 22.73C110.295 23.45 111.235 24.42 111.935 25.64C112.635 26.86 112.985 28.18 112.985 29.6ZM105.395 24.95C103.075 24.95 101.705 26.04 101.285 28.22H109.145V28.01C109.065 27.17 108.655 26.45 107.915 25.85C107.175 25.25 106.335 24.95 105.395 24.95ZM128.887 26.36C129.947 26.78 130.807 27.42 131.467 28.28C132.147 29.14 132.487 30.25 132.487 31.61C132.487 33.99 131.807 35.65 130.447 36.59C129.087 37.53 127.467 38 125.587 38H118.117C117.597 38 117.157 37.83 116.797 37.49C116.457 37.13 116.287 36.69 116.287 36.17V18.83C116.287 18.31 116.457 17.88 116.797 17.54C117.157 17.18 117.597 17 118.117 17H125.677C129.477 17 131.377 18.78 131.377 22.34C131.377 23.24 131.157 24.04 130.717 24.74C130.297 25.42 129.687 25.96 128.887 26.36ZM127.477 23C127.477 22.18 127.267 21.57 126.847 21.17C126.447 20.75 125.877 20.54 125.137 20.54H120.187V25.22H125.227C125.827 25.22 126.347 25.02 126.787 24.62C127.247 24.22 127.477 23.68 127.477 23ZM125.587 34.55C126.527 34.55 127.257 34.3 127.777 33.8C128.317 33.3 128.587 32.57 128.587 31.61C128.587 30.43 128.277 29.66 127.657 29.3C127.037 28.94 126.277 28.76 125.377 28.76H120.187V34.55H125.587ZM144.225 21.65C146.265 21.65 147.675 22.26 148.455 23.48C149.235 24.68 149.625 26.35 149.625 28.49V36.17C149.625 36.69 149.455 37.13 149.115 37.49C148.775 37.83 148.345 38 147.825 38C147.305 38 146.875 37.83 146.535 37.49C146.195 37.13 146.025 36.69 146.025 36.17V28.49C146.025 27.39 145.795 26.53 145.335 25.91C144.875 25.27 144.085 24.95 142.965 24.95C141.805 24.95 140.895 25.29 140.235 25.97C139.575 26.63 139.245 27.47 139.245 28.49V36.17C139.245 36.69 139.075 37.13 138.735 37.49C138.395 37.83 137.965 38 137.445 38C136.925 38 136.495 37.83 136.155 37.49C135.815 37.13 135.645 36.69 135.645 36.17V23.78C135.645 23.26 135.815 22.83 136.155 22.49C136.495 22.13 136.925 21.95 137.445 21.95C137.965 21.95 138.395 22.13 138.735 22.49C139.075 22.83 139.245 23.26 139.245 23.78V24.29C139.785 23.57 140.485 22.95 141.345 22.43C142.225 21.91 143.185 21.65 144.225 21.65ZM166.416 26.36C167.476 26.78 168.336 27.42 168.996 28.28C169.676 29.14 170.016 30.25 170.016 31.61C170.016 33.99 169.336 35.65 167.976 36.59C166.616 37.53 164.996 38 163.116 38H155.646C155.126 38 154.686 37.83 154.326 37.49C153.986 37.13 153.816 36.69 153.816 36.17V18.83C153.816 18.31 153.986 17.88 154.326 17.54C154.686 17.18 155.126 17 155.646 17H163.206C167.006 17 168.906 18.78 168.906 22.34C168.906 23.24 168.686 24.04 168.246 24.74C167.826 25.42 167.216 25.96 166.416 26.36ZM165.006 23C165.006 22.18 164.796 21.57 164.376 21.17C163.976 20.75 163.406 20.54 162.666 20.54H157.716V25.22H162.756C163.356 25.22 163.876 25.02 164.316 24.62C164.776 24.22 165.006 23.68 165.006 23ZM163.116 34.55C164.056 34.55 164.786 34.3 165.306 33.8C165.846 33.3 166.116 32.57 166.116 31.61C166.116 30.43 165.806 29.66 165.186 29.3C164.566 28.94 163.806 28.76 162.906 28.76H157.716V34.55H163.116Z" fill="#ED0245"/>
</svg>