<svg width="50" height="50" viewBox="0 0 50 50" fill="none" xmlns="http://www.w3.org/2000/svg">
<circle cx="25" cy="25" r="25" fill="#ED0245"/>
<path d="M22.5 13.125C24.2475 13.1249 25.9602 13.6133 27.4448 14.5349C28.9295 15.4565 30.1271 16.7748 30.9023 18.3409C31.6775 19.907 31.9997 21.6586 31.8323 23.398C31.6649 25.1374 31.0147 26.7955 29.955 28.185L35.8837 34.1162C36.1079 34.3412 36.2381 34.643 36.2478 34.9605C36.2575 35.2779 36.146 35.5871 35.9359 35.8253C35.7259 36.0636 35.4331 36.2129 35.1169 36.243C34.8007 36.2731 34.485 36.1818 34.2337 35.9875L34.1162 35.8837L28.185 29.955C27.0012 30.8576 25.6196 31.4654 24.1543 31.728C22.689 31.9906 21.1823 31.9005 19.7587 31.4651C18.3352 31.0298 17.0358 30.2617 15.9681 29.2244C14.9003 28.1872 14.0949 26.9106 13.6185 25.5002C13.1421 24.0899 13.0084 22.5864 13.2285 21.1141C13.4485 19.6419 14.016 18.2432 14.884 17.0338C15.7519 15.8244 16.8954 14.8391 18.2198 14.1594C19.5442 13.4796 21.0114 13.1251 22.5 13.125V13.125ZM22.5 15.625C20.6766 15.625 18.9279 16.3493 17.6386 17.6386C16.3493 18.928 15.625 20.6766 15.625 22.5C15.625 24.3234 16.3493 26.072 17.6386 27.3614C18.9279 28.6507 20.6766 29.375 22.5 29.375C24.3234 29.375 26.072 28.6507 27.3614 27.3614C28.6507 26.072 29.375 24.3234 29.375 22.5C29.375 20.6766 28.6507 18.928 27.3614 17.6386C26.072 16.3493 24.3234 15.625 22.5 15.625Z" fill="white"/>
</svg>